<?xml version="1.0" encoding="UTF-8"?>
<svg viewBox="0 0 3600 3600" xmlns="http://www.w3.org/2000/svg">
 <defs>
  <clipPath id="b">
   <path d="m1359 666.43h882v1526.6h-882z"/>
  </clipPath>
  <clipPath id="a">
   <path d="m1045 1657h1510v1276.6h-1510z"/>
  </clipPath>
 </defs>
 <rect x="-360" y="-360" width="4320" height="4320" fill="#00885a"/>
 <g clip-path="url(#b)">
  <path d="m1800 666.43c243.06 0 440.1 243.06 440.1 440.1v645.52c0 243.06-197.04 440.1-440.1 440.1s-440.1-243.06-440.1-440.1v-645.52c0-243.06 197.04-440.1 440.1-440.1z" fill="#fff"/>
 </g>
 <g clip-path="url(#a)">
  <path d="m1119 1657.9c-19.457 0-38.121 7.7305-51.879 21.488-13.762 13.762-21.492 32.422-21.492 51.883 0 391.17 299.33 713.75 680.98 750.73v304.91l-293.4-0.003906c-19.77-0.48438-38.895 7.0273-53.043 20.836-14.152 13.809-22.133 32.742-22.133 52.516 0 19.773 7.9805 38.707 22.133 52.516 14.148 13.809 33.273 21.32 53.043 20.836h733.54c25.777-0.63672 49.328-14.754 62.039-37.188 12.707-22.434 12.707-49.895 0-72.328-12.711-22.434-36.262-36.555-62.039-37.188h-293.4v-304.96c381.65-37.02 680.98-359.55 680.98-750.73v0.003906c-0.63672-25.777-14.754-49.332-37.188-62.039-22.434-12.711-49.895-12.711-72.328 0-22.438 12.707-36.555 36.262-37.188 62.039 0 335.02-272.59 607.61-607.61 607.61-335.02-0.003907-607.65-272.55-607.65-607.57 0-19.461-7.7305-38.121-21.492-51.883-13.758-13.758-32.422-21.488-51.883-21.488z" fill="#fff"/>
 </g>
</svg>
